<?xml version="1.0" encoding="iso-8859-1"?>
<!-- Generator: Adobe Illustrator 18.1.1, SVG Export Plug-In . SVG Version: 6.00 Build 0)  -->
<svg version="1.1" id="Layer_1" xmlns="http://www.w3.org/2000/svg" xmlns:xlink="http://www.w3.org/1999/xlink" x="0px" y="0px"
	 width="20px" height="20px" viewBox="0 0 20 20" enable-background="new 0 0 20 20" xml:space="preserve">
<path fill-rule="evenodd" clip-rule="evenodd" fill="#FFFFFF" d="M10,0C4.48,0,0,4.44,0,9.91c0,4.38,2.87,8.09,6.84,9.4
	c0.5,0.09,0.68-0.21,0.68-0.48c0-0.24-0.01-0.86-0.01-1.69c-2.78,0.6-3.37-1.33-3.37-1.33c-0.45-1.14-1.11-1.45-1.11-1.45
	c-0.91-0.61,0.07-0.6,0.07-0.6c1,0.07,1.53,1.02,1.53,1.02c0.89,1.51,2.34,1.08,2.91,0.82c0.09-0.64,0.35-1.08,0.63-1.32
	c-2.22-0.25-4.56-1.1-4.56-4.9c0-1.08,0.39-1.97,1.03-2.66c-0.1-0.25-0.45-1.26,0.1-2.62c0,0,0.84-0.27,2.75,1.02
	C8.3,4.91,9.15,4.8,10,4.79c0.85,0,1.7,0.11,2.5,0.33c1.91-1.28,2.75-1.02,2.75-1.02c0.55,1.36,0.2,2.37,0.1,2.62
	c0.64,0.69,1.03,1.58,1.03,2.66c0,3.81-2.34,4.64-4.57,4.89c0.36,0.31,0.68,0.91,0.68,1.84c0,1.32-0.01,2.39-0.01,2.72
	c0,0.26,0.18,0.57,0.69,0.48C17.14,18,20,14.29,20,9.91C20,4.44,15.52,0,10,0z"/>
</svg>
