<?xml version="1.0" encoding="iso-8859-1"?>
<!-- Generator: Adobe Illustrator 18.1.1, SVG Export Plug-In . SVG Version: 6.00 Build 0)  -->
<svg version="1.1" id="Layer_1" xmlns="http://www.w3.org/2000/svg" xmlns:xlink="http://www.w3.org/1999/xlink" x="0px" y="0px"
	 width="174px" height="36px" viewBox="-412 483 174 36" enable-background="new -412 483 174 36" xml:space="preserve">
<g>
	<g>
		<path fill="#ED3832" d="M-382.6,483.85h-7.5l-16,17.05v-17.05h-5.9v34.95h5.9V509l5.1-5.5l11.6,15.3h7l-14.25-19.65L-382.6,483.85
			z M-360.65,483c-5.2,0-9.57,1.72-13.1,5.17c-3.53,3.45-5.3,7.75-5.3,12.9s1.77,9.45,5.3,12.9c3.53,3.45,7.9,5.17,13.1,5.17
			c5.2,0,9.57-1.72,13.1-5.17c3.53-3.45,5.3-7.75,5.3-12.9s-1.77-9.45-5.3-12.9C-351.08,484.72-355.45,483-360.65,483z
			 M-351.88,510.05c-2.38,2.47-5.31,3.7-8.78,3.7s-6.39-1.23-8.77-3.7c-2.38-2.47-3.57-5.46-3.57-8.97c0-3.52,1.19-6.51,3.58-8.98
			c2.38-2.47,5.31-3.7,8.77-3.7c3.47,0,6.39,1.23,8.78,3.7c2.38,2.47,3.58,5.46,3.58,8.98
			C-348.3,504.59-349.49,507.58-351.88,510.05z M-306.9,495.2c0-3.97-1.15-6.85-3.45-8.65c-2.3-1.8-6.12-2.7-11.45-2.7h-13v34.95
			h5.9v-11.75h7.75l8.35,11.75h7.5l-9.15-12.7C-309.42,504.6-306.9,500.97-306.9,495.2z M-321.55,501.7h-7.35v-12.5h7.5
			c3.17,0,5.37,0.42,6.6,1.27c1.23,0.85,1.85,2.42,1.85,4.7s-0.6,3.94-1.8,4.97C-315.95,501.18-318.22,501.7-321.55,501.7z
			 M-284.08,483c-4.65,0-8.27,1.33-10.88,4c-2.6,2.67-3.9,6.57-3.9,11.7v20.1h5.9v-8.65h17.65v8.65h5.95v-20.4
			c0-5-1.29-8.82-3.88-11.45C-275.81,484.32-279.43,483-284.08,483z M-275.3,504.65h-17.65v-6.2c0-3.2,0.78-5.65,2.33-7.35
			c1.55-1.7,3.71-2.55,6.48-2.55c2.77,0,4.93,0.88,6.5,2.65c1.57,1.77,2.35,4.27,2.35,7.5v5.95H-275.3z M-254.15,513.2v-29.35h-5.9
			v34.95h21.85v-5.6C-238.2,513.2-254.15,513.2-254.15,513.2z"/>
	</g>
</g>
</svg>
