<?xml version="1.0" encoding="iso-8859-1"?>
<!-- Generator: Adobe Illustrator 18.1.1, SVG Export Plug-In . SVG Version: 6.00 Build 0)  -->
<svg version="1.1" id="Layer_1" xmlns="http://www.w3.org/2000/svg" xmlns:xlink="http://www.w3.org/1999/xlink" x="0px" y="0px"
	 width="174px" height="36px" viewBox="0 0 174 36" enable-background="new 0 0 174 36" xml:space="preserve">
<g>
	<g>
		<path fill="#D81D1D" d="M29.4,0.85h-7.5L5.9,17.9V0.85H0V35.8h5.9V26l5.1-5.5l11.6,15.3h7L15.35,16.15L29.4,0.85z M51.35,0
			c-5.2,0-9.57,1.72-13.1,5.17c-3.53,3.45-5.3,7.75-5.3,12.9c0,5.15,1.77,9.45,5.3,12.9c3.53,3.45,7.9,5.17,13.1,5.17
			c5.2,0,9.57-1.72,13.1-5.17c3.53-3.45,5.3-7.75,5.3-12.9c0-5.15-1.77-9.45-5.3-12.9C60.92,1.72,56.55,0,51.35,0z M60.12,27.05
			c-2.38,2.47-5.31,3.7-8.78,3.7c-3.47,0-6.39-1.23-8.77-3.7C40.19,24.58,39,21.59,39,18.08c0-3.52,1.19-6.51,3.58-8.98
			c2.38-2.47,5.31-3.7,8.77-3.7c3.47,0,6.39,1.23,8.78,3.7c2.38,2.47,3.58,5.46,3.58,8.98C63.7,21.59,62.51,24.58,60.12,27.05z
			 M105.1,12.2c0-3.97-1.15-6.85-3.45-8.65c-2.3-1.8-6.12-2.7-11.45-2.7h-13V35.8h5.9V24.05h7.75L99.2,35.8h7.5l-9.15-12.7
			C102.58,21.6,105.1,17.97,105.1,12.2z M90.45,18.7H83.1V6.2h7.5c3.17,0,5.37,0.42,6.6,1.27c1.23,0.85,1.85,2.42,1.85,4.7
			c0,2.28-0.6,3.94-1.8,4.97C96.05,18.18,93.78,18.7,90.45,18.7z M127.92,0c-4.65,0-8.27,1.33-10.88,4c-2.6,2.67-3.9,6.57-3.9,11.7
			v20.1h5.9v-8.65h17.65v8.65h5.95V15.4c0-5-1.29-8.82-3.88-11.45C136.19,1.32,132.57,0,127.92,0z M136.7,21.65h-17.65v-6.2
			c0-3.2,0.78-5.65,2.33-7.35s3.71-2.55,6.48-2.55c2.77,0,4.93,0.88,6.5,2.65c1.57,1.77,2.35,4.27,2.35,7.5V21.65z M157.85,30.2
			V0.85h-5.9V35.8h21.85v-5.6H157.85z"/>
	</g>
</g>
</svg>
