<?xml version="1.0" encoding="utf-8"?>
<!-- Generator: Adobe Illustrator 18.1.1, SVG Export Plug-In . SVG Version: 6.00 Build 0)  -->
<svg version="1.1" id="Separate" xmlns="http://www.w3.org/2000/svg" xmlns:xlink="http://www.w3.org/1999/xlink" x="0px" y="0px"
	 width="380px" height="1051px" viewBox="0 0 380 1051" enable-background="new 0 0 380 1051" xml:space="preserve">
<g>
	<path fill-rule="evenodd" clip-rule="evenodd" d="M33,44h2v71h14V80h2v35h14V44h2v29h13V44l0,0h0c0-7.18-5.82-13-13-13h-9v-3.33
		c4.2-2.66,7-7.33,7-12.67c0-8.28-6.72-15-15-15S35,6.72,35,15c0,5.34,2.8,10.02,7,12.67V31h-9c-7.18,0-13,5.82-13,13h0l0,0v29h13
		V44z"/>
	<path fill-rule="evenodd" clip-rule="evenodd" d="M126,44h2v71h14V80h2v35h14V44h2v29h13V44l0,0h0c0-7.18-5.82-13-13-13h-9v-3.33
		c4.2-2.66,7-7.33,7-12.67c0-8.28-6.72-15-15-15s-15,6.72-15,15c0,5.34,2.8,10.02,7,12.67V31h-9c-7.18,0-13,5.82-13,13h0l0,0v29h13
		V44z"/>
	<path fill-rule="evenodd" clip-rule="evenodd" d="M220,44h2v71h14V80h2v35h14V44h2v29h13V44l0,0h0c0-7.18-5.82-13-13-13h-9v-3.33
		c4.2-2.66,7-7.33,7-12.67c0-8.28-6.72-15-15-15s-15,6.72-15,15c0,5.34,2.8,10.02,7,12.67V31h-9c-7.18,0-13,5.82-13,13h0l0,0v29h13
		V44z"/>
	<path fill-rule="evenodd" clip-rule="evenodd" d="M313,44h2v71h14V80h2v35h14V44h2v29h13V44l0,0h0c0-7.18-5.82-13-13-13h-9v-3.33
		c4.2-2.66,7-7.33,7-12.67c0-8.28-6.72-15-15-15s-15,6.72-15,15c0,5.34,2.8,10.02,7,12.67V31h-9c-7.18,0-13,5.82-13,13h0l0,0v29h13
		V44z"/>
	<path fill-rule="evenodd" clip-rule="evenodd" d="M322,809H58c-3.31,0-6,2.69-6,6v176c0,3.31,2.69,6,6,6h23v-3H58
		c-1.66,0-3-1.34-3-3v-17h26v-3H55V815c0-1.66,1.34-3,3-3h264c1.66,0,3,1.34,3,3v156h-27v3h27v17c0,1.66-1.34,3-3,3h-24v3h24
		c3.31,0,6-2.69,6-6V815C328,811.69,325.31,809,322,809z"/>
	<path fill-rule="evenodd" clip-rule="evenodd" d="M259,939h-36v-7.27c12.77-9.88,21-25.34,21-42.73c0-29.82-24.18-54-54-54
		c-29.82,0-54,24.18-54,54c0,17.39,8.23,32.85,21,42.73V939h-37c-19.88,0-36,16.12-36,36v76h36v-76h6v76h127v-76h6v76h36v-76
		C295,955.12,278.88,939,259,939z"/>
</g>
</svg>
