<?xml version="1.0" encoding="utf-8"?>
<!-- Generator: Adobe Illustrator 18.1.1, SVG Export Plug-In . SVG Version: 6.00 Build 0)  -->
<svg version="1.1" id="Layer_1" xmlns="http://www.w3.org/2000/svg" xmlns:xlink="http://www.w3.org/1999/xlink" x="0px" y="0px"
	 width="380px" height="192px" viewBox="0 0 380 192" enable-background="new 0 0 380 192" xml:space="preserve">
<circle fill-rule="evenodd" clip-rule="evenodd" cx="31" cy="10" r="4"/>
<circle fill-rule="evenodd" clip-rule="evenodd" cx="21" cy="10" r="4"/>
<path fill-rule="evenodd" clip-rule="evenodd" d="M380,3c0-1.66-1.34-3-3-3H3C1.34,0,0,1.34,0,3v186c0,1.66,1.34,3,3,3h374
	c1.66,0,3-1.34,3-3V3z M377,188c0,0.55-0.45,1-1,1H4c-0.55,0-1-0.45-1-1V20h374V188z M377,17H3V4c0-0.55,0.45-1,1-1h372
	c0.55,0,1,0.45,1,1V17z"/>
<circle fill-rule="evenodd" clip-rule="evenodd" cx="11" cy="10" r="4"/>
</svg>
